<?xml version="1.0" encoding="UTF-8" standalone="no"?>
<svg width="144px" height="43px" viewBox="0 0 144 43" version="1.1" xmlns="http://www.w3.org/2000/svg" xmlns:xlink="http://www.w3.org/1999/xlink">
    <!-- Generator: Sketch 39.1 (31720) - http://www.bohemiancoding.com/sketch -->
    <title>apple-store</title>
    <desc>Created with Sketch.</desc>
    <defs></defs>
    <g id="Page-1" stroke="none" stroke-width="1" fill="none" fill-rule="evenodd">
        <g id="Joya-desktop-–-Home-014" transform="translate(-583.000000, -1302.000000)">
            <g id="marco-polo" transform="translate(0.000000, 800.000000)">
                <g id="content" transform="translate(577.000000, 255.000000)">
                    <g id="badges" transform="translate(6.000000, 247.000000)">
                        <g id="apple-store">
                            <rect id="bg" fill="#000000" x="0" y="0" width="144" height="43" rx="4.31999991"></rect>
                            <g id="apple-logo" transform="translate(12.992000, 6.450000)" fill="#FFFFFF">
                                <path d="M18.9065813,14.8178 C18.875184,11.353075 21.7637387,9.667475 21.895824,9.589 C20.2599147,7.220775 17.7243093,6.8972 16.8332747,6.8714 C14.7036693,6.648875 12.6379413,8.136675 11.5531093,8.136675 C10.446624,8.136675 8.77606933,6.8929 6.97559467,6.92945 C4.658688,6.964925 2.49118933,8.29685 1.30242133,10.36515 C-1.15090133,14.582375 0.678805333,20.77975 3.02927467,24.188575 C4.20505067,25.85805 5.57895467,27.7221 7.377264,27.656525 C9.13659733,27.5845 9.793776,26.542825 11.9168853,26.542825 C14.0205067,26.542825 14.6376267,27.656525 16.471664,27.6146 C18.3598347,27.5845 19.5486027,25.9376 20.6832373,24.253075 C22.041984,22.339575 22.587648,20.4551 22.6093013,20.35835 C22.564912,20.3433 18.9423093,18.970525 18.9065813,14.8178 L18.9065813,14.8178 Z" id="Shape"></path>
                                <path d="M15.442048,4.62895 C16.3882987,3.453975 17.0357333,1.85545 16.8560107,0.233275 C15.4864373,0.293475 13.7736587,1.1739 12.7873493,2.323075 C11.91472,3.335725 11.1352,4.995525 11.336576,6.556425 C12.8750453,6.670375 14.454656,5.78565 15.442048,4.62895 L15.442048,4.62895 Z" id="Shape"></path>
                            </g>
                            <g id="app-store" transform="translate(44.752000, 19.350000)" fill="#FFFFFF">
                                <path d="M86.7822293,8.8709 C86.7822293,9.28155 86.7551627,9.6277 86.6977813,9.910425 L79.7730453,9.910425 C79.800112,10.929525 80.134656,11.7089 80.77776,12.2464 C81.3613173,12.726925 82.115936,12.967725 83.0426987,12.967725 C84.067984,12.967725 85.003408,12.8054 85.84464,12.479675 L86.2062507,14.070675 C85.2231893,14.496375 84.0625707,14.70815 82.723312,14.70815 C81.112304,14.70815 79.8477493,14.2373 78.9274827,13.296675 C78.0093813,12.35605 77.549248,11.092925 77.549248,9.508375 C77.549248,7.95285 77.9769013,6.657475 78.8332907,5.6244 C79.7297387,4.52145 80.9412427,3.969975 82.4656373,3.969975 C83.9629653,3.969975 85.0965173,4.52145 85.8662933,5.6244 C86.4758347,6.500525 86.7822293,7.584125 86.7822293,8.8709 L86.7822293,8.8709 Z M84.581168,8.276425 C84.5963253,7.597025 84.4458347,7.010075 84.132944,6.5145 C83.73344,5.877025 83.119568,5.558825 82.2934933,5.558825 C81.5388747,5.558825 80.9250027,5.8695 80.456208,6.493 C80.0718613,6.988575 79.8434187,7.58305 79.7730453,8.27535 L84.581168,8.27535 L84.581168,8.276425 Z" id="Shape"></path>
                                <path d="M76.4590027,6.216725 C76.23056,6.1748 75.98696,6.1533 75.7314507,6.1533 C74.9194507,6.1533 74.291504,6.457525 73.849776,7.06705 C73.4654293,7.60455 73.2727147,8.28395 73.2727147,9.104175 L73.2727147,14.5168 L70.965552,14.5168 L70.9872053,7.44975 C70.9872053,6.2608 70.9579733,5.178275 70.900592,4.202175 L72.911104,4.202175 L72.995552,6.175875 L73.0594293,6.175875 C73.3030293,5.49755 73.687376,4.95145 74.213552,4.541875 C74.7278187,4.17315 75.2832267,3.989325 75.8819413,3.989325 C76.0952267,3.989325 76.2879413,4.004375 76.4590027,4.03125 L76.4590027,6.216725 L76.4590027,6.216725 Z" id="Shape"></path>
                                <path d="M68.9561227,9.274025 C68.9561227,10.85965 68.4992373,12.161475 67.587632,13.1795 C66.6316373,14.227625 65.362752,14.750075 63.780976,14.750075 C62.2565813,14.750075 61.042912,14.24805 60.1378027,13.244 C59.2326933,12.23995 58.7801387,10.972525 58.7801387,9.44495 C58.7801387,7.846425 59.2456853,6.537075 60.1800267,5.51905 C61.1122027,4.49995 62.3702613,3.9904 63.9520373,3.9904 C65.476432,3.9904 66.7030933,4.492425 67.6287733,5.49755 C68.5143947,6.472575 68.9561227,7.7314 68.9561227,9.274025 L68.9561227,9.274025 Z M66.561264,9.3482 C66.561264,8.396825 66.35664,7.5809 65.9419787,6.900425 C65.4580267,6.076975 64.7662027,5.666325 63.8697547,5.666325 C62.9419093,5.666325 62.2370933,6.07805 61.7531413,6.900425 C61.33848,7.581975 61.133856,8.4108 61.133856,9.3912 C61.133856,10.342575 61.33848,11.1585 61.7531413,11.8379 C62.2522507,12.66135 62.949488,13.072 63.849184,13.072 C64.7304747,13.072 65.4222987,12.65275 65.921408,11.8164 C66.346896,11.123025 66.561264,10.2985 66.561264,9.3482 L66.561264,9.3482 Z" id="Shape"></path>
                                <path d="M57.476608,5.9211 L54.9323413,5.9211 L54.9323413,10.929525 C54.9323413,12.2034 55.3805653,12.8398 56.2791787,12.8398 C56.6916747,12.8398 57.0337973,12.804325 57.304464,12.733375 L57.3683413,14.4738 C56.9136213,14.642575 56.3149067,14.7275 55.57328,14.7275 C54.6616747,14.7275 53.94928,14.451225 53.4350133,13.89975 C52.922912,13.3472 52.6652373,12.42055 52.6652373,11.118725 L52.6652373,5.91895 L51.149504,5.91895 L51.149504,4.19895 L52.6652373,4.19895 L52.6652373,2.310175 L54.9323413,1.630775 L54.9323413,4.19895 L57.476608,4.19895 L57.476608,5.9211 L57.476608,5.9211 Z" id="Shape"></path>
                                <path d="M49.8448907,10.5049 C49.8448907,11.7218 49.4194027,12.711875 48.5651787,13.4762 C47.6265067,14.311475 46.319728,14.728575 44.640512,14.728575 C43.0901333,14.728575 41.847232,14.431875 40.9063947,13.8374 L41.441232,11.927125 C42.454608,12.535575 43.5665067,12.840875 44.7780107,12.840875 C45.647392,12.840875 46.3240587,12.645225 46.810176,12.256075 C47.294128,11.866925 47.5355627,11.344475 47.5355627,10.693025 C47.5355627,10.112525 47.336352,9.6234 46.936848,9.226725 C46.5395093,8.83005 45.8758347,8.461325 44.949072,8.12055 C42.4264587,7.186375 41.1662347,5.8179 41.1662347,4.01835 C41.1662347,2.8423 41.6079627,1.878025 42.4925013,1.127675 C43.373792,0.37625 44.549568,0.001075 46.0198293,0.001075 C47.3309387,0.001075 48.4201013,0.2279 49.2894827,0.680475 L48.7124213,2.548825 C47.9004213,2.110225 46.98232,1.890925 45.9548693,1.890925 C45.1428693,1.890925 44.5084267,2.0898 44.0537067,2.4854 C43.66936,2.839075 43.4766453,3.27015 43.4766453,3.780775 C43.4766453,4.346225 43.6964267,4.81385 44.1381547,5.1815 C44.5225013,5.5212 45.2208213,5.88885 46.2341973,6.285525 C47.4738507,6.7811 48.3843733,7.360525 48.970096,8.024875 C49.5536533,8.687075 49.8448907,9.5159 49.8448907,10.5049 L49.8448907,10.5049 Z" id="Shape"></path>
                                <path d="M36.484784,9.2321 C36.484784,10.9865 36.007328,12.37325 35.0513333,13.391275 C34.1971093,14.2975 33.1350133,14.750075 31.8672107,14.750075 C30.49872,14.750075 29.5156587,14.262025 28.9180267,13.285925 L28.87472,13.285925 L28.87472,18.72005 L26.5664747,18.72005 L26.5664747,7.597025 C26.5664747,6.494075 26.5372427,5.3621 26.480944,4.2011 L28.510944,4.2011 L28.6397813,5.836175 L28.683088,5.836175 C29.4517813,4.604225 30.6199787,3.989325 32.1887627,3.989325 C33.4132587,3.989325 34.4363787,4.46985 35.25704,5.431975 C36.0744533,6.395175 36.484784,7.661525 36.484784,9.2321 L36.484784,9.2321 Z M34.133232,9.31595 C34.133232,8.3119 33.9047893,7.48415 33.447904,6.8327 C32.9487947,6.1533 32.2807893,5.8136 31.4395573,5.8136 C30.868992,5.8136 30.35256,6.0028 29.8891787,6.375825 C29.4257973,6.752075 29.1237333,7.24335 28.981904,7.8518 C28.9115307,8.1356 28.87472,8.3678 28.87472,8.55055 L28.87472,10.27055 C28.87472,11.0209 29.1064107,11.654075 29.5676267,12.17115 C30.031008,12.68715 30.6329707,12.946225 31.37568,12.946225 C32.2450613,12.946225 32.921728,12.612975 33.40568,11.948625 C33.8907147,11.2832 34.133232,10.406 34.133232,9.31595 L34.133232,9.31595 Z" id="Shape"></path>
                                <path d="M24.535392,9.2321 C24.535392,10.9865 24.057936,12.37325 23.103024,13.391275 C22.2477173,14.2975 21.1856213,14.750075 19.9178187,14.750075 C18.549328,14.750075 17.5662667,14.262025 16.967552,13.285925 L16.9242453,13.285925 L16.9242453,18.72005 L14.616,18.72005 L14.616,7.597025 C14.616,6.494075 14.586768,5.3621 14.5304693,4.2011 L16.5604693,4.2011 L16.6893067,5.836175 L16.7326133,5.836175 C17.5023893,4.604225 18.6705867,3.989325 20.238288,3.989325 C21.4638667,3.989325 22.4869867,4.46985 23.3054827,5.431975 C24.126144,6.395175 24.535392,7.661525 24.535392,9.2321 L24.535392,9.2321 Z M22.18384,9.31595 C22.18384,8.3119 21.95648,7.48415 21.4995947,6.8327 C21.0004853,6.1533 20.3303147,5.8136 19.4901653,5.8136 C18.9206827,5.8136 18.403168,6.0028 17.9408693,6.375825 C17.477488,6.752075 17.1743413,7.24335 17.032512,7.8518 C16.961056,8.1356 16.925328,8.3678 16.925328,8.55055 L16.925328,10.27055 C16.925328,11.0209 17.1570187,11.654075 17.6204,12.17115 C18.0837813,12.688225 18.685744,12.946225 19.426288,12.946225 C20.2956693,12.946225 20.972336,12.612975 21.456288,11.948625 C21.9413227,11.2832 22.18384,10.406 22.18384,9.31595 L22.18384,9.31595 Z" id="Shape"></path>
                                <path d="M12.6076533,14.5168 L10.1489173,14.5168 L8.80208,10.314625 L4.12062933,10.314625 L2.83766933,14.5168 L0.443893333,14.5168 L5.08203733,0.2107 L7.94677333,0.2107 L12.6076533,14.5168 L12.6076533,14.5168 Z M8.39608,8.551625 L7.17808,4.816 C7.04924267,4.434375 6.807808,3.535675 6.45161067,2.120975 L6.408304,2.120975 C6.26647467,2.729425 6.038032,3.628125 5.72405867,4.816 L4.527712,8.551625 L8.39608,8.551625 L8.39608,8.551625 Z" id="Shape"></path>
                            </g>
                            <g id="download-on-the" transform="translate(46.554667, 6.450000)" fill="#FFFFFF">
                                <path d="M83.952112,5.216975 C83.952112,5.419075 83.9369547,5.588925 83.909888,5.7276 L80.5070667,5.7276 C80.522224,6.22855 80.684624,6.610175 80.99968,6.874625 C81.2876693,7.111125 81.659024,7.229375 82.113744,7.229375 C82.617184,7.229375 83.0762347,7.149825 83.4898133,6.98965 L83.6673707,7.77225 C83.1834187,7.9808 82.613936,8.085075 81.954592,8.085075 C81.1642453,8.085075 80.541712,7.85395 80.0913227,7.3917 C79.638768,6.92945 79.414656,6.309175 79.414656,5.530875 C79.414656,4.76655 79.6236107,4.13015 80.044768,3.62275 C80.4843307,3.08095 81.0787147,2.81005 81.8290027,2.81005 C82.5630507,2.81005 83.120624,3.08095 83.497392,3.62275 C83.8016213,4.05275 83.952112,4.584875 83.952112,5.216975 L83.952112,5.216975 Z M82.8694453,4.92565 C82.8781067,4.591325 82.8034027,4.303225 82.649664,4.060275 C82.4526187,3.74745 82.15272,3.5905 81.74672,3.5905 C81.376448,3.5905 81.074384,3.74315 80.843776,4.049525 C80.655392,4.29355 80.5438773,4.584875 80.5070667,4.92565 L82.8694453,4.92565 L82.8694453,4.92565 Z" id="Shape"></path>
                                <path d="M77.7560107,7.990475 L76.6202933,7.990475 L76.6202933,5.109475 C76.6202933,4.2011 76.2781707,3.746375 75.5928427,3.746375 C75.0666667,3.746375 74.7072213,4.00975 74.510176,4.5365 C74.4766133,4.647225 74.4571253,4.782675 74.4571253,4.941775 L74.4571253,7.9894 L73.3235733,7.9894 L73.3235733,0.5977 L74.4571253,0.5977 L74.4571253,3.651775 L74.4787787,3.651775 C74.8360587,3.096 75.34816,2.81865 76.0118347,2.81865 C76.481712,2.81865 76.8703893,2.9713 77.1789493,3.277675 C77.563296,3.6593 77.7560107,4.2269 77.7560107,4.97725 L77.7560107,7.990475 L77.7560107,7.990475 Z" id="Shape"></path>
                                <path d="M71.749376,3.7668 L70.4999787,3.7668 L70.4999787,6.22855 C70.4999787,6.8542 70.7219253,7.167025 71.161488,7.167025 C71.3650293,7.167025 71.5339253,7.149825 71.6670933,7.11435 L71.6963253,7.968975 C71.4722133,8.052825 71.177728,8.09475 70.8150347,8.09475 C70.3668107,8.09475 70.018192,7.9593 69.7659307,7.6884 C69.5125867,7.4175 69.3869973,6.9617 69.3869973,6.322075 L69.3869973,3.7668 L68.64104,3.7668 L68.64104,2.922925 L69.3869973,2.922925 L69.3869973,1.994125 L70.498896,1.660875 L70.498896,2.92185 L71.7482933,2.92185 L71.7482933,3.7668 L71.749376,3.7668 Z" id="Shape"></path>
                                <path d="M64.113328,7.990475 L62.979776,7.990475 L62.979776,5.087975 C62.979776,4.193575 62.6376533,3.746375 61.95016,3.746375 C61.6134507,3.746375 61.3417013,3.868925 61.131664,4.1151 C60.9216267,4.361275 60.816608,4.651525 60.816608,4.9837 L60.816608,7.9894 L59.6808907,7.9894 L59.6808907,4.37095 C59.6808907,3.9259 59.6678987,3.443225 59.640832,2.920775 L60.6368853,2.920775 L60.689936,3.71305 L60.7213333,3.71305 C60.8545013,3.466875 61.0515467,3.2637 61.3092213,3.101375 C61.6177813,2.912175 61.9609867,2.8165 62.3388373,2.8165 C62.814128,2.8165 63.210384,2.96915 63.52544,3.275525 C63.918448,3.6507 64.113328,4.210775 64.113328,4.954675 L64.113328,7.990475 L64.113328,7.990475 Z" id="Shape"></path>
                                <path d="M58.0125013,5.414775 C58.0125013,6.19415 57.7883893,6.8327 57.3401653,7.33365 C56.870288,7.848575 56.2488373,8.1055 55.4704,8.1055 C54.7222773,8.1055 54.125728,7.859325 53.6796693,7.364825 C53.235776,6.8714 53.0138293,6.248975 53.0138293,5.498625 C53.0138293,4.713875 53.242272,4.06995 53.7013227,3.570075 C54.1603733,3.0702 54.7774933,2.819725 55.5559307,2.819725 C56.3040533,2.819725 56.9070987,3.0659 57.3618187,3.559325 C57.7948853,4.038775 58.0125013,4.657975 58.0125013,5.414775 L58.0125013,5.414775 Z M56.8367253,5.451325 C56.8367253,4.9837 56.7349547,4.582725 56.532496,4.2484 C56.2932267,3.8442 55.9554347,3.6421 55.5137067,3.6421 C55.0589867,3.6421 54.7125333,3.8442 54.473264,4.2484 C54.2697227,4.582725 54.1690347,4.99015 54.1690347,5.47175 C54.1690347,5.939375 54.2708053,6.34035 54.473264,6.674675 C54.7190293,7.078875 55.061152,7.280975 55.50288,7.280975 C55.9359467,7.280975 56.2769867,7.07565 56.5216693,6.663925 C56.730624,6.32315 56.8367253,5.91895 56.8367253,5.451325 L56.8367253,5.451325 Z" id="Shape"></path>
                                <path d="M48.30856,7.990475 L47.30168,7.990475 L47.2486293,7.1767 L47.217232,7.1767 C46.89568,7.7959 46.3478507,8.1055 45.5780747,8.1055 C44.96312,8.1055 44.4510187,7.865775 44.0450187,7.386325 C43.6390187,6.906875 43.43656,6.28445 43.43656,5.520125 C43.43656,4.6999 43.6563413,4.03555 44.0980693,3.52815 C44.5257227,3.05515 45.0497333,2.81865 45.6733493,2.81865 C46.3586773,2.81865 46.8382987,3.047625 47.1111307,3.50665 L47.132784,3.50665 L47.132784,0.5977 L48.2685013,0.5977 L48.2685013,6.625225 C48.2685013,7.11865 48.2814933,7.573375 48.30856,7.990475 L48.30856,7.990475 Z M47.132784,5.853375 L47.132784,5.008425 C47.132784,4.862225 47.1219573,4.743975 47.1013867,4.653675 C47.0375093,4.382775 46.9000107,4.154875 46.691056,3.97105 C46.479936,3.787225 46.2255093,3.694775 45.9321067,3.694775 C45.508784,3.694775 45.177488,3.8614 44.933888,4.195725 C44.6924533,4.53005 44.570112,4.956825 44.570112,5.4782 C44.570112,5.97915 44.6859573,6.3855 44.9187307,6.698325 C45.164496,7.031575 45.495792,7.1982 45.9104533,7.1982 C46.2828907,7.1982 46.580624,7.059525 46.8069013,6.7811 C47.0256,6.524175 47.132784,6.214575 47.132784,5.853375 L47.132784,5.853375 Z" id="Shape"></path>
                                <path d="M41.86128,7.990475 L40.8424907,7.990475 L40.7580427,7.40675 L40.7266453,7.40675 C40.3780267,7.872225 39.8810827,8.1055 39.2358133,8.1055 C38.7540267,8.1055 38.3642667,7.951775 38.070864,7.646475 C37.804528,7.369125 37.67136,7.02405 37.67136,6.614475 C37.67136,5.995275 37.9312,5.52335 38.454128,5.19655 C38.9759733,4.86975 39.7100213,4.709575 40.6551893,4.7171 L40.6551893,4.6225 C40.6551893,3.954925 40.30224,3.621675 39.5952587,3.621675 C39.0918187,3.621675 38.6479253,3.74745 38.2646613,3.99685 L38.0340533,3.25725 C38.5082613,2.965925 39.093984,2.819725 39.7847253,2.819725 C41.1185707,2.819725 41.7876587,3.518475 41.7876587,4.915975 L41.7876587,6.782175 C41.7876587,7.2885 41.81256,7.691625 41.86128,7.990475 L41.86128,7.990475 Z M40.6833387,6.248975 L40.6833387,5.46745 C39.431776,5.44595 38.8059947,5.786725 38.8059947,6.4887 C38.8059947,6.75315 38.8774507,6.95095 39.0236107,7.083175 C39.1697707,7.2154 39.3559893,7.280975 39.577936,7.280975 C39.8269493,7.280975 40.0597227,7.2025 40.2719253,7.046625 C40.4852107,6.889675 40.6162133,6.6908 40.6649333,6.446775 C40.6768427,6.39195 40.6833387,6.3253 40.6833387,6.248975 L40.6833387,6.248975 Z" id="Shape"></path>
                                <path d="M36.3699947,5.414775 C36.3699947,6.19415 36.1458827,6.8327 35.6976587,7.33365 C35.2277813,7.848575 34.6041653,8.1055 33.8278933,8.1055 C33.0776053,8.1055 32.481056,7.859325 32.0371627,7.364825 C31.5932693,6.8714 31.3713227,6.248975 31.3713227,5.498625 C31.3713227,4.713875 31.5997653,4.06995 32.058816,3.570075 C32.5178667,3.0702 33.1349867,2.819725 33.9112587,2.819725 C34.6615467,2.819725 35.2624267,3.0659 35.719312,3.559325 C36.1523787,4.038775 36.3699947,4.657975 36.3699947,5.414775 L36.3699947,5.414775 Z M35.1920533,5.451325 C35.1920533,4.9837 35.0902827,4.582725 34.887824,4.2484 C34.65072,3.8442 34.3107627,3.6421 33.8712,3.6421 C33.4143147,3.6421 33.0678613,3.8442 32.8307573,4.2484 C32.627216,4.582725 32.526528,4.99015 32.526528,5.47175 C32.526528,5.939375 32.6282987,6.34035 32.8307573,6.674675 C33.0765227,7.078875 33.4186453,7.280975 33.8603733,7.280975 C34.29344,7.280975 34.6323147,7.07565 34.8769973,6.663925 C35.0881173,6.32315 35.1920533,5.91895 35.1920533,5.451325 L35.1920533,5.451325 Z" id="Shape"></path>
                                <polygon id="Shape" points="29.6899413 7.990475 28.5563893 7.990475 28.5563893 0.5977 29.6899413 0.5977"></polygon>
                                <path d="M26.5610347,7.990475 L25.4264,7.990475 L25.4264,5.087975 C25.4264,4.193575 25.0842773,3.746375 24.3978667,3.746375 C24.0611573,3.746375 23.789408,3.868925 23.578288,4.1151 C23.3693333,4.361275 23.263232,4.651525 23.263232,4.9837 L23.263232,7.9894 L22.1285973,7.9894 L22.1285973,4.37095 C22.1285973,3.9259 22.1145227,3.443225 22.087456,2.920775 L23.084592,2.920775 L23.1376427,3.71305 L23.16904,3.71305 C23.3011253,3.466875 23.4981707,3.2637 23.756928,3.101375 C24.0644053,2.912175 24.4086933,2.8165 24.7854613,2.8165 C25.2618347,2.8165 25.6580907,2.96915 25.9731467,3.275525 C26.365072,3.6507 26.5610347,4.210775 26.5610347,4.954675 L26.5610347,7.990475 L26.5610347,7.990475 Z" id="Shape"></path>
                                <path d="M20.6789067,2.922925 L19.0819733,7.990475 L18.0426133,7.990475 L17.381104,5.78995 C17.2132907,5.240625 17.0768747,4.694525 16.9707733,4.152725 L16.9502027,4.152725 C16.85168,4.709575 16.715264,5.2546 16.539872,5.78995 L15.8372213,7.990475 L14.785952,7.990475 L13.2842933,2.922925 L14.4503253,2.922925 L15.0273867,5.332 C15.1670507,5.90175 15.2818133,6.444625 15.37384,6.958475 L15.3944107,6.958475 C15.4788587,6.534925 15.6185227,5.995275 15.815568,5.34275 L16.539872,2.924 L17.4644693,2.924 L18.1584587,5.29115 C18.326272,5.868425 18.462688,6.4242 18.5677067,6.95955 L18.599104,6.95955 C18.6759733,6.438175 18.7918187,5.8824 18.9455573,5.29115 L19.5648427,2.924 L20.6789067,2.924 L20.6789067,2.922925 Z" id="Shape"></path>
                                <path d="M12.1734773,5.414775 C12.1734773,6.19415 11.9493653,6.8327 11.5011413,7.33365 C11.031264,7.848575 10.4087307,8.1055 9.631376,8.1055 C8.88217067,8.1055 8.28562133,7.859325 7.84064533,7.364825 C7.396752,6.8714 7.17480533,6.248975 7.17480533,5.498625 C7.17480533,4.713875 7.403248,4.06995 7.86229867,3.570075 C8.32134933,3.0702 8.93846933,2.819725 9.715824,2.819725 C10.4650293,2.819725 11.066992,3.0659 11.5227947,3.559325 C11.9558613,4.038775 12.1734773,4.657975 12.1734773,5.414775 L12.1734773,5.414775 Z M10.9966187,5.451325 C10.9966187,4.9837 10.894848,4.582725 10.6923893,4.2484 C10.4542027,3.8442 10.115328,3.6421 9.67468267,3.6421 C9.21888,3.6421 8.87242667,3.8442 8.63424,4.2484 C8.43069867,4.582725 8.33001067,4.99015 8.33001067,5.47175 C8.33001067,5.939375 8.43178133,6.34035 8.63424,6.674675 C8.88000533,7.078875 9.222128,7.280975 9.663856,7.280975 C10.0969227,7.280975 10.43688,7.07565 10.6815627,6.663925 C10.8916,6.32315 10.9966187,5.91895 10.9966187,5.451325 L10.9966187,5.451325 Z" id="Shape"></path>
                                <path d="M5.83013333,4.309675 C5.83013333,5.57495 5.447952,6.5274 4.684672,7.167025 C3.97769067,7.7572 2.972976,8.052825 1.67161067,8.052825 C1.02634133,8.052825 0.474181333,8.024875 0.0118826667,7.968975 L0.0118826667,1.05565 C0.614928,0.9589 1.264528,0.90945 1.966096,0.90945 C3.20574933,0.90945 4.14009067,1.177125 4.77020267,1.712475 C5.47610133,2.3177 5.83013333,3.183075 5.83013333,4.309675 L5.83013333,4.309675 Z M4.63378667,4.34085 C4.63378667,3.520625 4.415088,2.89175 3.97769067,2.45315 C3.54029333,2.015625 2.90152,1.796325 2.060288,1.796325 C1.703008,1.796325 1.39877867,1.819975 1.14651733,1.869425 L1.14651733,7.1251 C1.28618133,7.1466 1.54169067,7.156275 1.91304533,7.156275 C2.781344,7.156275 3.45151467,6.91655 3.92355733,6.4371 C4.3956,5.95765 4.63378667,5.2589 4.63378667,4.34085 L4.63378667,4.34085 Z" id="Shape"></path>
                            </g>
                        </g>
                    </g>
                </g>
            </g>
        </g>
    </g>
</svg>