<?xml version="1.0" encoding="UTF-8" standalone="no"?>
<svg width="133px" height="140px" viewBox="0 0 133 140" version="1.1" xmlns="http://www.w3.org/2000/svg" xmlns:xlink="http://www.w3.org/1999/xlink">
    <!-- Generator: Sketch 39.1 (31720) - http://www.bohemiancoding.com/sketch -->
    <title>illu-email</title>
    <desc>Created with Sketch.</desc>
    <defs></defs>
    <g id="Page-1" stroke="none" stroke-width="1" fill="none" fill-rule="evenodd">
        <g id="Joya-web-assets" transform="translate(-975.000000, -1011.000000)">
            <g id="illu-email" transform="translate(975.000000, 1011.000000)">
                <path d="M0,59.9949844 C0,57.7886154 1.36871119,54.8355741 3.05295146,53.4027129 L63.1936776,2.23821456 C65.2958514,0.449798043 68.6810985,0.477328979 70.7614904,2.30555219 L129.992615,54.3571465 C131.653548,55.8167542 133,58.7913182 133,61.0032625 L133,127.008446 C133,134.183483 127.178166,140 120.00524,140 L12.9947599,140 C5.81795219,140 0,134.176596 0,126.990168 L0,59.9949844 Z" id="bg" fill="#4D6BAD"></path>
                <rect id="paper" fill="#FFFFFF" x="20" y="48" width="92.1740506" height="74.5240964" rx="4.19999968"></rect>
                <polygon id="mid-left" fill="#46CDF4" points="0 61 45 97 0 130"></polygon>
                <polygon id="mid-right" fill="#46CDF4" transform="translate(110.500000, 95.500000) scale(-1, 1) translate(-110.500000, -95.500000) " points="88 61 133 97 88 130"></polygon>
                <path d="M0,126 L62.9097071,81.86931 C65.1687135,80.2846338 68.8167982,80.3213078 71.0416051,81.9393492 L133,127 L133,132.007544 C133,136.421656 129.425384,140 125.004514,140 L7.9954863,140 C3.57970115,140 0,136.412832 0,131.998185 L0,126 Z" id="front" fill="#B0EDFF"></path>
                <path d="M52,108.16 C52,106.96 52.960804,106 54.161809,106 C55.3628141,106 56.3236181,106.96 56.3236181,108.16 C56.3236181,113.5 60.8874372,117.88 66.7123116,117.88 C72.5371859,117.88 77.101005,113.5 77.101005,108.16 C77.101005,106.96 78.061809,106 79.2628141,106 C80.4638191,106 81.4246231,106.96 81.4246231,108.16 C81.4846734,115.96 74.8190955,122.26 66.7123116,122.26 C58.6055276,122.26 52,116.02 52,108.16 Z" id="smile" fill="#4D6BAD"></path>
            </g>
        </g>
    </g>
</svg>