<?xml version="1.0" encoding="UTF-8" standalone="no"?>
<svg width="239px" height="72px" viewBox="0 0 239 72" version="1.1" xmlns="http://www.w3.org/2000/svg" xmlns:xlink="http://www.w3.org/1999/xlink">
    <!-- Generator: Sketch 39.1 (31720) - http://www.bohemiancoding.com/sketch -->
    <title>logo</title>
    <desc>Created with Sketch.</desc>
    <defs></defs>
    <g id="Page-1" stroke="none" stroke-width="1" fill="none" fill-rule="evenodd">
        <g id="Joya-desktop-–-Home-014" transform="translate(-105.000000, -337.000000)" fill="#FFFFFF">
            <g id="intro">
                <g id="brand" transform="translate(105.000000, 337.000000)">
                    <g id="content">
                        <g id="logo">
                            <g id="Group">
                                <path d="M41.3746231,1.56 L27.0826633,1.56 C24.6806533,1.56 23.5997487,2.64 23.5997487,5.04 L23.5997487,44.64 L23.4796482,44.64 C23.4796482,50.64 20.2969849,53.16 15.3128141,53.16 C12.4904523,53.16 10.0884422,52.38 8.22688442,51.54 C5.94497487,50.46 4.50376884,51.3 3.72311558,53.64 L0.360301508,62.94 C-0.540452261,65.34 0.360301508,66.42 2.10175879,67.5 C5.70477387,69.78 11.95,71.76 19.4562814,71.76 C35.369598,71.76 44.9175879,64.32 44.9175879,46.44 L44.9175879,5.1 C44.9175879,2.64 43.7766332,1.56 41.3746231,1.56 L41.3746231,1.56 Z" id="Shape"></path>
                                <path d="M238.579648,66.6 L218.402764,4.74 C217.742211,2.64 216.781407,1.56 214.139196,1.56 L196.664573,1.56 C194.142462,1.56 193.181658,2.64 192.401005,4.74 L172.224121,66.6 C171.323367,69.12 172.524372,70.86 174.866332,70.86 L189.698744,70.86 C192.100754,70.86 193.421859,69.78 193.962312,67.56 L196.06407,60.06 L214.739698,60.06 L216.901508,67.56 C217.44196,69.72 218.763065,70.86 221.165075,70.86 L235.997487,70.86 C238.279397,70.8 239.480402,69.18 238.579648,66.6 L238.579648,66.6 Z M199.366834,42.6 L205.371859,22.44 L205.672111,22.44 L211.256784,42.6 L199.366834,42.6 L199.366834,42.6 Z" id="Shape"></path>
                                <path d="M179.730402,1.56 L164.777889,1.56 C162.375879,1.56 160.934673,2.88 160.09397,4.86 L153.128141,20.34 L149.945477,28.86 L149.525126,28.86 L146.342462,20.34 L139.556784,4.74 C138.65603,2.76 137.274874,1.44 134.872864,1.44 L120.040452,1.44 C117.758543,1.44 116.557538,3.72 117.758543,5.82 L139.256533,45.12 L139.256533,67.14 C139.256533,69.54 140.337437,70.62 142.739447,70.62 L157.031407,70.62 C159.433417,70.62 160.514322,69.54 160.514322,67.14 L160.514322,45.24 L182.012312,5.94 C183.213317,3.72 182.012312,1.56 179.730402,1.56 L179.730402,1.56 Z" id="Shape"></path>
                                <path d="M84.7309045,0.36 C65.5148241,0.36 52.8442211,10.86 52.8442211,36.12 C52.8442211,61.44 65.5148241,71.88 84.7309045,71.88 C103.946985,71.88 116.617588,61.38 116.617588,36.12 C116.617588,10.8 103.946985,0.36 84.7309045,0.36 L84.7309045,0.36 Z M84.610804,57.3 C76.5040201,57.3 69.8984925,51.06 69.8984925,43.2 C69.8984925,42 70.8592965,41.04 72.0603015,41.04 C73.2613065,41.04 74.2221106,42 74.2221106,43.2 C74.2221106,48.54 78.7859296,52.92 84.610804,52.92 C90.4356784,52.92 94.9994975,48.54 94.9994975,43.2 C94.9994975,42 95.9603015,41.04 97.1613065,41.04 C98.3623116,41.04 99.3231156,42 99.3231156,43.2 C99.3831658,51 92.7175879,57.3 84.610804,57.3 L84.610804,57.3 Z" id="Shape"></path>
                            </g>
                        </g>
                    </g>
                </g>
            </g>
        </g>
    </g>
</svg>