<?xml version="1.0" encoding="UTF-8" standalone="no"?>
<svg width="72px" height="72px" viewBox="0 0 72 72" version="1.1" xmlns="http://www.w3.org/2000/svg" xmlns:xlink="http://www.w3.org/1999/xlink">
    <!-- Generator: Sketch 39.1 (31720) - http://www.bohemiancoding.com/sketch -->
    <title>MarcoPolo-logo</title>
    <desc>Created with Sketch.</desc>
    <defs></defs>
    <g id="Page-1" stroke="none" stroke-width="1" fill="none" fill-rule="evenodd">
        <g id="Joya-desktop-–-Home-014" transform="translate(-577.000000, -1104.000000)">
            <g id="marco-polo" transform="translate(0.000000, 800.000000)">
                <g id="content" transform="translate(577.000000, 255.000000)">
                    <g id="MarcoPolo-logo" transform="translate(0.000000, 49.000000)">
                        <path d="M47.9508502,26.8120994 C53.2508159,24.0620793 59.3074917,21.3126553 65.6805118,21.3126553 C66.7781308,21.3126553 67.8649653,21.3662968 68.9404162,21.4574873 C64.9148148,12.3056543 57.1541934,5.15822463 47.573993,1.91291489 C49.0065295,5.97774729 49.8033817,10.3465481 49.8033817,14.9054781 C49.8033817,19.059713 49.1515207,23.0506394 47.9508502,26.8120994" id="Blue" fill="#16ACD6"></path>
                        <path d="M47.9508502,26.8120994 C41.3908993,16.4610812 26.9834522,8.00062722 13.0744871,8.18598835 C5.08918938,14.7505139 0.000119827397,24.6777644 0.000119827397,35.7881076 C0.000119827397,39.458377 0.556718087,42.9987149 1.58903111,46.3322351 C15.4758282,34.0572757 35.8626624,28.1436002 47.9903932,26.835344 C47.9766131,26.8275958 47.963432,26.8198476 47.9508502,26.8120994" id="Yellow" fill="#FBE93F"></path>
                        <g id="Red" transform="translate(31.754260, 26.653367)" fill="#F4352E">
                            <path d="M16.2422442,0.186089914 C13.429296,16.3828378 11.3191356,30.2575054 0.365114079,44.7150772 C1.6322888,44.8497769 2.91743764,44.9224909 4.22115972,44.9224909 C17.6735824,44.9224909 29.3939002,37.5718196 35.5656102,26.6915388 C33.618415,15.0650453 26.3083447,5.85241859 16.2422442,0.186089914" id="Fill-5"></path>
                        </g>
                        <path d="M68.940536,21.4572489 C67.8650851,21.3666544 66.7782506,21.3130129 65.6806317,21.3130129 C59.3076116,21.3130129 53.2509358,24.0618409 47.95097,26.811861 C47.9635519,26.8196092 47.9767329,26.8279534 47.990513,26.8351056 C47.9929096,26.8351056 47.9953061,26.8345096 47.9977027,26.8345096 C47.9977027,26.8362976 47.9965044,26.8374897 47.9965044,26.8392777 C58.0626049,32.5056064 65.3726753,41.7182331 67.3198705,53.3447266 C70.2628313,48.1569992 71.9500011,42.1700136 71.9500011,35.7878692 C71.9500011,30.6907362 70.8715545,25.8457182 68.940536,21.4572489" id="Purple" fill="#B15ED9"></path>
                        <path d="M47.9906329,26.8354036 C35.862902,28.1436598 15.4754687,34.0573353 1.58927077,46.3322947 C5.74907886,59.7736584 17.6521333,69.8350126 32.1194941,71.368563 C43.0735156,56.9109912 45.183077,43.0363236 47.9966242,26.8395757 C47.9942277,26.8383837 47.9930294,26.8365956 47.9906329,26.8354036" id="Orange" fill="#FFB514"></path>
                        <path d="M47.9508502,26.8120994 C49.1515207,23.0506394 49.8033817,19.059713 49.8033817,14.9054781 C49.8033817,10.3465481 49.0065295,5.97774729 47.573993,1.91291489 C43.9336367,0.679160779 40.0344532,0.00029800824 35.9753001,0.00029800824 C27.2746328,0.00029800824 19.2953264,3.07276296 13.0744871,8.18598835 C26.9834522,8.00062722 41.3908993,16.4610812 47.9508502,26.8120994" id="Green" fill="#A8D200"></path>
                        <path d="M55.8414244,23.673119 C57.7640549,27.8070893 56.1188248,32.6318427 52.1669172,34.450885 C48.2162079,36.2693313 43.4548663,34.3918794 41.5322357,30.257909 C39.6096051,26.1245348 41.2548353,21.2997814 45.2067429,19.4807391 C49.1586504,17.6622928 53.919992,19.5403407 55.8414244,23.673119" id="White" fill="#FBFBFB"></path>
                    </g>
                </g>
            </g>
        </g>
    </g>
</svg>