<?xml version="1.0" encoding="UTF-8" standalone="no"?>
<svg width="59px" height="42px" viewBox="0 0 59 42" version="1.1" xmlns="http://www.w3.org/2000/svg" xmlns:xlink="http://www.w3.org/1999/xlink">
    <!-- Generator: Sketch 39.1 (31720) - http://www.bohemiancoding.com/sketch -->
    <title>“</title>
    <desc>Created with Sketch.</desc>
    <defs></defs>
    <g id="Page-1" stroke="none" stroke-width="1" fill="none" fill-rule="evenodd" opacity="0.049999997">
        <g id="Joya-web-assets" transform="translate(-377.000000, -2023.000000)" fill="#000000">
            <path d="M435.5,2028.125 C435.5,2025.875 434.125,2023.875 430.75,2023.875 C426.125,2023.875 420.5,2026.125 416.75,2029.875 C412.125,2034.5 409.375,2041.25 409.375,2050.375 L409.375,2050.875 C409.375,2059.5 413.5,2064.875 420.5,2064.875 C426.75,2064.875 430.875,2060.5 430.875,2054.625 L430.875,2054.375 C430.875,2049 426.5,2045.25 422.125,2044.125 C421.875,2038.125 425.375,2033.75 431.75,2032.25 C433.875,2031.75 435.5,2030.375 435.5,2028.125 L435.5,2028.125 Z M403.75,2028.125 C403.75,2025.875 402.375,2023.875 399,2023.875 C394.375,2023.875 388.75,2026.125 385,2029.875 C380.375,2034.5 377.625,2041.25 377.625,2050.375 L377.625,2050.875 C377.625,2059.5 381.75,2064.875 388.75,2064.875 C395,2064.875 399.125,2060.5 399.125,2054.625 L399.125,2054.375 C399.125,2049 394.75,2045.25 390.375,2044.125 C390.125,2038.125 393.625,2033.75 400,2032.25 C402.125,2031.75 403.75,2030.375 403.75,2028.125 L403.75,2028.125 Z" id="“" transform="translate(406.562500, 2044.375000) scale(-1, -1) translate(-406.562500, -2044.375000) "></path>
        </g>
    </g>
</svg>