<?xml version="1.0" encoding="UTF-8" standalone="no"?>
<svg width="59px" height="42px" viewBox="0 0 59 42" version="1.1" xmlns="http://www.w3.org/2000/svg" xmlns:xlink="http://www.w3.org/1999/xlink">
    <!-- Generator: Sketch 39.1 (31720) - http://www.bohemiancoding.com/sketch -->
    <title>“</title>
    <desc>Created with Sketch.</desc>
    <defs></defs>
    <g id="Page-1" stroke="none" stroke-width="1" fill="none" fill-rule="evenodd" opacity="0.049999997">
        <g id="Joya-web-assets" transform="translate(-277.000000, -2023.000000)" fill="#000000">
            <path d="M335.5,2028.125 C335.5,2025.875 334.125,2023.875 330.75,2023.875 C326.125,2023.875 320.5,2026.125 316.75,2029.875 C312.125,2034.5 309.375,2041.25 309.375,2050.375 L309.375,2050.875 C309.375,2059.5 313.5,2064.875 320.5,2064.875 C326.75,2064.875 330.875,2060.5 330.875,2054.625 L330.875,2054.375 C330.875,2049 326.5,2045.25 322.125,2044.125 C321.875,2038.125 325.375,2033.75 331.75,2032.25 C333.875,2031.75 335.5,2030.375 335.5,2028.125 L335.5,2028.125 Z M303.75,2028.125 C303.75,2025.875 302.375,2023.875 299,2023.875 C294.375,2023.875 288.75,2026.125 285,2029.875 C280.375,2034.5 277.625,2041.25 277.625,2050.375 L277.625,2050.875 C277.625,2059.5 281.75,2064.875 288.75,2064.875 C295,2064.875 299.125,2060.5 299.125,2054.625 L299.125,2054.375 C299.125,2049 294.75,2045.25 290.375,2044.125 C290.125,2038.125 293.625,2033.75 300,2032.25 C302.125,2031.75 303.75,2030.375 303.75,2028.125 L303.75,2028.125 Z" id="“"></path>
        </g>
    </g>
</svg>