<?xml version="1.0" encoding="UTF-8" standalone="no"?>
<svg width="32px" height="32px" viewBox="0 0 32 32" version="1.1" xmlns="http://www.w3.org/2000/svg" xmlns:xlink="http://www.w3.org/1999/xlink">
    <!-- Generator: Sketch 39.1 (31720) - http://www.bohemiancoding.com/sketch -->
    <title>twitter</title>
    <desc>Created with Sketch.</desc>
    <defs>
        <circle id="path-1" cx="15" cy="15" r="14.375"></circle>
        <mask id="mask-2" maskContentUnits="userSpaceOnUse" maskUnits="objectBoundingBox" x="-1" y="-1" width="30.75" height="30.75">
            <rect x="-0.375" y="-0.375" width="30.75" height="30.75" fill="white"></rect>
            <use xlink:href="#path-1" fill="black"></use>
        </mask>
    </defs>
    <g id="Page-1" stroke="none" stroke-width="1" fill="none" fill-rule="evenodd">
        <g id="Joya-web-assets" transform="translate(-1349.000000, -113.000000)">
            <g id="social-icons" transform="translate(1300.000000, 74.000000)">
                <g id="twitter" transform="translate(50.000000, 40.000000)">
                    <g id="Oval">
                        <use fill="#FFFFFF" fill-rule="evenodd" xlink:href="#path-1"></use>
                        <use stroke-opacity="0.4" stroke="#FFFFFF" mask="url(#mask-2)" stroke-width="2" xlink:href="#path-1"></use>
                    </g>
                    <path d="M23.125,9.1925 C23.125,9.1925 21.43625,9.375 20.6875,9.525 C20.0875,8.88375 19.2325,8.485 18.28625,8.485 C16.46875,8.485 14.995,9.95875 14.995,11.775 C14.995,12.03125 15.02375,12.285 15.08,12.52375 C12.34625,12.38875 9.9225,11.0775 8.3,9.08625 C8.01625,9.57375 7.85375,10.1375 7.85375,10.74125 C7.85375,11.88375 8.435,12.88875 9.3175,13.47875 C8.77875,13.46125 8.27125,13.31375 7.8275,13.06625 L7.8275,13.11 C7.8275,14.7025 8.96125,16.0325 10.46625,16.33375 C9.98375,16.46625 9.47625,16.485 8.98125,16.39125 C9.4,17.6975 10.615,18.64875 12.05375,18.6775 C10.6475,19.78 8.90125,20.24 7.18375,20.03875 C8.64,20.9725 10.37,21.51875 12.2275,21.51875 C18.27875,21.51875 21.5875,16.50375 21.5875,12.1575 L21.5775,11.7325 C22.22,11.26625 22.68375,9.8525 23.125,9.1925 L23.125,9.1925 Z" id="Shape" fill="#222222"></path>
                </g>
            </g>
        </g>
    </g>
</svg>