<?xml version="1.0" encoding="UTF-8" standalone="no"?>
<svg width="283px" height="127px" viewBox="0 0 283 127" version="1.1" xmlns="http://www.w3.org/2000/svg" xmlns:xlink="http://www.w3.org/1999/xlink" xmlns:sketch="http://www.bohemiancoding.com/sketch/ns">
    <!-- Generator: Sketch 3.2.2 (9983) - http://www.bohemiancoding.com/sketch -->
    <title>Logo</title>
    <desc>Created with Sketch.</desc>
    <defs>
        <path d="M121.285549,57.3013149 C121.285549,59.5803757 121.286727,61.8221713 121.284763,64.0639669 C121.283585,65.4039448 121.309114,66.7450994 121.264733,68.0839006 C121.212889,69.6608066 120.308368,70.5885138 118.729875,70.5998895 C114.475524,70.6312707 110.22078,70.6320552 105.966429,70.5979282 C104.428783,70.585768 103.56393,69.7000331 103.432357,68.1686298 C103.39583,67.7461602 103.406042,67.3193757 103.406042,66.8945525 C103.404864,50.7473481 103.404864,34.5997514 103.405649,18.452547 C103.405649,18.0928398 103.395045,17.7319558 103.423323,17.3742099 C103.55254,15.748663 104.332164,14.8927403 105.968,14.8633204 C109.632036,14.7970276 113.298036,14.7832983 116.962072,14.8311547 C118.652894,14.8535138 119.403454,15.5517459 119.886939,17.2023978 C120.097064,17.9202431 120.292657,18.6427956 120.533418,19.4995028 C122.516844,17.0980552 125.028136,15.6686409 127.835961,14.7899669 C133.536446,13.006337 139.016986,13.4166464 144.028181,16.8779945 C147.045738,18.9624917 148.809613,22.0068619 149.951752,25.4215304 C151.743905,30.7802652 151.94539,36.3049282 151.586017,41.8805856 C151.35154,45.5180608 150.710167,49.0672762 149.225543,52.423105 C146.768058,57.9791492 142.568301,61.2235746 136.491554,62.002221 C132.028649,62.5741436 127.825357,61.8739503 123.982223,59.4838785 C123.034106,58.8943039 122.228953,58.0748619 121.285549,57.3013149 L121.285549,57.3013149 Z M133.624031,39.7654917 C133.599287,36.2335359 133.597323,33.5484807 132.643315,30.9956188 C131.425766,27.7366796 128.780543,26.8811492 125.690719,27.5986022 C123.279579,28.1583646 122.233666,30.0392762 121.71876,32.226547 C120.877474,35.7985138 120.923033,39.416768 121.548304,43.0134475 C121.845621,44.7252928 122.406872,46.393989 123.877749,47.510768 C127.13371,49.9828232 131.659457,48.5012376 132.798847,44.5048398 C133.312181,42.703558 133.452396,40.7963646 133.624031,39.7654917 Z M251.680699,57.3036685 C251.680699,60.7367735 251.686983,64.1028011 251.678343,67.4684365 C251.672058,69.7792707 250.851195,70.6147956 248.564167,70.6214641 C244.702574,70.633232 240.840588,70.6336243 236.978994,70.6218564 C234.635017,70.6144033 233.804334,69.7780939 233.803549,67.4131271 C233.798443,50.9391657 233.798443,34.4652044 233.803156,17.9912431 C233.803942,15.7263039 234.572175,14.8688122 236.824248,14.8288011 C240.291905,14.7672155 243.762312,14.7730994 247.230362,14.8174254 C249.031942,14.8405691 249.793106,15.5187956 250.29505,17.2698674 C250.492214,17.9579006 250.687415,18.6467182 250.868869,19.2829724 C252.023577,18.377232 253.075774,17.335768 254.31571,16.6163536 C260.335507,13.123232 266.558359,12.7039006 272.827164,15.8777182 C276.752384,17.865326 278.969501,21.344326 280.337476,25.3932873 C282.14534,30.7457459 282.338577,36.2743315 281.98588,41.8503812 C281.760045,45.4219558 281.139487,48.913116 279.715741,52.2167735 C277.268468,57.8967735 273.029827,61.2388729 266.820721,62.0100663 C262.356245,62.5647293 258.155702,61.8570829 254.32278,59.4466133 C253.387624,58.859 252.591111,58.0517182 251.680699,57.3036685 Z M264.138579,39.0519613 C263.959089,36.9533425 263.827123,35.0026077 263.607571,33.0620718 C263.528627,32.3603094 263.291008,31.6628619 263.038465,30.9964033 C261.806777,27.7413867 259.176086,26.8815414 256.087047,27.5982099 C253.675908,28.1579724 252.629602,30.0384917 252.114304,32.2257624 C251.273017,35.7977293 251.318577,39.4159834 251.943454,43.012663 C252.241164,44.7245083 252.802022,46.3935967 254.272507,47.5103757 C257.528075,49.9828232 262.054607,48.5020221 263.19439,44.5056243 C263.707724,42.7043425 263.847939,40.7967569 264.138579,39.0519613 Z M19.4745153,15.8502597 L19.4745153,24.6970166 L20.5875905,24.6970166 C26.4114011,24.6974088 32.2352117,24.6938785 38.0586295,24.6989779 C40.5353593,24.7013315 41.430454,25.5764751 41.4493064,28.0555912 C41.4705153,30.8653867 41.4669805,33.6759669 41.4524485,36.4861547 C41.4398802,38.8781878 40.5074735,39.8027569 38.1120446,39.805895 C32.288234,39.8129558 26.4644234,39.8082486 20.6406128,39.8082486 L19.4148162,39.8082486 L19.4148162,40.9972044 C19.4148162,46.4214475 19.4156017,51.8456906 19.4132451,57.2699337 C19.4132451,57.7269227 19.4101031,58.1854807 19.3763259,58.6412928 C19.2608552,60.194663 18.4568802,61.1282541 16.9137354,61.1482597 C12.4001643,61.2070994 7.88423677,61.2125912 3.37066574,61.1419834 C1.77135655,61.1168785 0.981520891,60.1573978 0.890401114,58.544011 C0.866442897,58.1203646 0.869192201,57.6947569 0.869192201,57.270326 C0.868406685,39.5925028 0.868406685,21.9142873 0.868406685,4.23646409 C0.868799443,1.04460221 1.52588301,0.383243094 4.70054318,0.383243094 C16.086195,0.382458564 27.4718468,0.382458564 38.8574986,0.383243094 C39.2828552,0.383243094 39.7097827,0.370298343 40.1331755,0.402464088 C41.556922,0.509552486 42.3353677,1.21994475 42.5706295,2.62543094 C42.6295432,2.97768508 42.6625348,3.33856906 42.6637131,3.69592265 C42.6711755,6.57122652 42.6790306,9.44692265 42.6644986,12.3222265 C42.6507521,15.0112044 41.8173203,15.844768 39.1422479,15.8479061 C32.991663,15.8553591 26.8406852,15.8502597 20.6897075,15.8502597 L19.4745153,15.8502597 Z M177.668267,44.710779 L180.627696,44.710779 C185.863156,44.710779 191.098616,44.7064641 196.334075,44.7127403 C198.862649,44.7154862 199.673694,45.5180608 199.686262,48.059547 C199.702365,51.3275083 199.705507,54.5958619 199.684298,57.8638232 C199.668195,60.3829503 198.83712,61.1894475 196.300298,61.190232 C184.978666,61.194547 173.657033,61.1949392 162.335008,61.1898398 C159.804078,61.188663 158.958864,60.3652983 158.957685,57.8548011 C158.950616,39.7823591 158.950616,21.7103094 158.957685,3.6378674 C158.958864,1.23210497 159.810362,0.392657459 162.208148,0.386381215 C166.265334,0.375790055 170.322914,0.376574586 174.380493,0.38520442 C176.865471,0.390696133 177.664733,1.2160221 177.665911,3.79516575 C177.671017,16.9984199 177.668267,30.2012818 177.668267,43.4045359 L177.668267,44.710779 Z M49.7671281,30.7932099 C49.7667354,21.9021271 49.7663426,13.0114365 49.7675209,4.12074586 C49.7675209,3.69592265 49.7635933,3.26992265 49.7891226,2.84627624 C49.8790641,1.36900552 50.7309554,0.428353591 52.2053677,0.413055249 C56.5249164,0.368337017 60.8452507,0.371082873 65.1647994,0.409917127 C66.5469136,0.422077348 67.334,1.1799337 67.5676908,2.53403315 C67.6501699,3.01259669 67.6462423,3.50959669 67.6462423,3.99835912 C67.6501699,21.8452486 67.6493844,39.6921381 67.6485989,57.5394199 C67.6485989,57.8987348 67.6580251,58.260011 67.6269972,58.6173646 C67.4777493,60.3146961 66.6136825,61.1663039 64.8961532,61.1780718 C60.8051894,61.2063149 56.7142256,61.207884 52.6232618,61.1812099 C50.6064513,61.1678729 49.773805,60.2397735 49.7714485,58.0536796 C49.7620223,48.9668564 49.7675209,39.8800331 49.7671281,30.7932099 Z M76.8438412,37.9559724 C76.8430557,31.4533923 76.8422702,24.9512044 76.8454123,18.4486243 C76.8454123,17.9590773 76.8446267,17.466 76.8984345,16.9803757 C77.0284373,15.8149558 77.7350084,15.0496464 78.9003203,14.9084309 C79.740429,14.806442 80.5962479,14.8036961 81.4446045,14.8044807 C84.9774596,14.8068343 88.5111003,14.7895746 92.0427772,14.8570442 C93.8094011,14.890779 94.5564262,15.6937459 94.7099944,17.4550166 C94.7410223,17.8119779 94.7300251,18.1732541 94.7300251,18.5325691 C94.7312033,31.504779 94.7312033,44.476989 94.7300251,57.4491989 C94.7300251,57.8410718 94.7359164,58.2345138 94.7029248,58.6244254 C94.5623175,60.2813536 93.7198524,61.1568895 92.0635933,61.1717956 C87.8764039,61.2090608 83.6880362,61.2161215 79.5012396,61.1674807 C77.6379972,61.1459061 76.8544457,60.182895 76.8497326,58.051326 C76.8348078,51.3530055 76.844234,44.6546851 76.8438412,37.9559724 Z M207.239384,37.9516575 C207.238599,31.4490773 207.237813,24.9464972 207.240955,18.4443094 C207.241348,17.9543702 207.24017,17.4612928 207.29437,16.9760608 C207.425552,15.8114254 208.133301,15.0484696 209.300184,14.9080387 C210.140685,14.806442 210.996111,14.8036961 211.844861,14.8044807 C215.377716,14.8068343 218.910964,14.7895746 222.443033,14.8570442 C224.20573,14.890779 224.953148,15.6976685 225.106323,17.4593315 C225.134602,17.7841271 225.125961,18.112453 225.125961,18.4388177 C225.126747,31.4765359 225.126747,44.5138619 225.125961,57.5515801 C225.125568,57.878337 225.128318,58.2058785 225.10593,58.5310663 C224.983783,60.2856685 224.11893,61.1655193 222.356627,61.1784641 C218.267234,61.2086685 214.177448,61.2086685 210.088056,61.1804254 C208.073209,61.1666961 207.250382,60.2515414 207.245276,58.047011 C207.229958,51.3482983 207.239777,44.6499779 207.239384,37.9516575 Z M85.8332786,0.387558011 C87.8928997,0.386381215 89.9529136,0.371867403 92.0125348,0.390303867 C93.8914875,0.407171271 94.738273,1.12893923 94.841961,3.00945856 C94.9393649,4.76562983 94.9275822,6.53592265 94.827429,8.29248619 C94.7363092,9.8948895 93.9201588,10.715116 92.3290975,10.7359061 C87.9490641,10.7927845 83.5674596,10.797884 79.1878189,10.7288453 C77.526454,10.7029558 76.7252284,9.75524309 76.6910585,8.07674033 C76.6572813,6.41235912 76.654532,4.74601657 76.6879164,3.08124309 C76.7236574,1.2858453 77.6246435,0.41540884 79.4580362,0.394226519 C81.5828552,0.369906077 83.7080669,0.388734807 85.8332786,0.387558011 Z M216.156947,0.386773481 C218.24956,0.386773481 220.342173,0.371475138 222.434393,0.391088398 C224.265036,0.408348066 225.122819,1.1269779 225.225329,2.93885083 C225.32666,4.72718785 225.319198,6.53003867 225.218652,8.31837569 C225.129496,9.90783425 224.297635,10.7186464 222.698326,10.7386519 C218.350891,10.7935691 214.001886,10.7974917 209.654844,10.7370829 C207.9381,10.7131547 207.118415,9.77603315 207.085816,8.05045856 C207.05361,6.35312707 207.048504,4.65422652 207.090136,2.95728729 C207.130591,1.32271823 208.033933,0.429530387 209.683908,0.401287293 C211.840933,0.36480663 213.999136,0.392657459 216.156947,0.392657459 L216.156947,0.386773481 Z" id="path-1"></path>
    </defs>
    <g id="Page-1" stroke="none" stroke-width="1" fill="none" fill-rule="evenodd" sketch:type="MSPage">
        <g id="Desktop-final-fliplip" sketch:type="MSArtboardGroup" transform="translate(-581.000000, -431.000000)">
            <g id="content" sketch:type="MSLayerGroup" transform="translate(570.000000, 431.000000)">
                <g id="Logo" transform="translate(11.000000, 0.000000)">
                    <g id="logo-2">
                        <mask id="mask-2" sketch:name="Fill 1" fill="white">
                            <use xlink:href="#path-1"></use>
                        </mask>
                        <use id="Fill-1" fill="#FFC251" sketch:type="MSShapeGroup" xlink:href="#path-1"></use>
                        <path d="M-58.96071,34.9211529 C-58.96071,34.9211529 13.4161598,59.4536961 74.7104326,59.4536961 C139.249493,59.4536961 258.405959,-73.5517551 258.405959,-73.5517551 L318.53929,217.803539 L-58.96071,217.803539 L-58.96071,34.9211529 Z" id="Rectangle-9" fill="#27CCA7" sketch:type="MSShapeGroup" mask="url(#mask-2)">
                            <g transform="translate(129.789290, 72.125892) rotate(33.000000) translate(-129.789290, -72.125892) "></g>
                        </path>
                        <path d="M-68.96071,44.9211529 C-68.96071,44.9211529 3.41615978,69.4536961 64.7104326,69.4536961 C129.249493,69.4536961 248.405959,-63.5517551 248.405959,-63.5517551 L308.53929,227.803539 L-68.96071,227.803539 L-68.96071,44.9211529 Z" id="Rectangle-10" fill="#FFFFFF" sketch:type="MSShapeGroup" mask="url(#mask-2)">
                            <g transform="translate(119.789290, 82.125892) rotate(33.000000) translate(-119.789290, -82.125892) "></g>
                        </path>
                    </g>
                    <text id="Voice-Changer" sketch:type="MSTextLayer" font-family="Helvetica Neue" font-size="36" font-weight="420" fill="#FFFFFF">
                        <tspan x="15.5" y="118.289828">Voice Changer</tspan>
                    </text>
                </g>
            </g>
        </g>
    </g>
</svg>